<mxfile host="app.diagrams.net" modified="2023-01-08T20:47:23.115Z" agent="5.0 (Macintosh; Intel Mac OS X 10_15_7) AppleWebKit/537.36 (KHTML, like Gecko) Chrome/108.0.0.0 Safari/537.36" version="20.7.4" etag="xEzLjG3JYJHjypz5XuJ5" type="github">
  <diagram id="seu8MXW0M_aEXuHFiLvy" name="Page-1">
    <mxGraphModel dx="794" dy="418" grid="1" gridSize="10" guides="1" tooltips="1" connect="1" arrows="1" fold="1" page="1" pageScale="1" pageWidth="827" pageHeight="1169" math="0" shadow="0">
      <root>
        <mxCell id="0" />
        <mxCell id="1" parent="0" />
        <mxCell id="R05uWj6PvPZUDIditTrj-17" style="edgeStyle=orthogonalEdgeStyle;rounded=0;orthogonalLoop=1;jettySize=auto;html=1;" edge="1" parent="1" source="R05uWj6PvPZUDIditTrj-10" target="R05uWj6PvPZUDIditTrj-12">
          <mxGeometry relative="1" as="geometry" />
        </mxCell>
        <mxCell id="R05uWj6PvPZUDIditTrj-10" value="" style="rounded=0;whiteSpace=wrap;html=1;" vertex="1" parent="1">
          <mxGeometry x="220" y="170" width="140" height="120" as="geometry" />
        </mxCell>
        <mxCell id="R05uWj6PvPZUDIditTrj-1" value="SLF4J" style="rounded=0;whiteSpace=wrap;html=1;" vertex="1" parent="1">
          <mxGeometry x="240" y="240" width="100" height="30" as="geometry" />
        </mxCell>
        <mxCell id="R05uWj6PvPZUDIditTrj-2" value="JCL" style="rounded=0;whiteSpace=wrap;html=1;" vertex="1" parent="1">
          <mxGeometry x="240" y="190" width="100" height="30" as="geometry" />
        </mxCell>
        <mxCell id="R05uWj6PvPZUDIditTrj-4" value="Apache Commons Logging / Jarkarta Commons Logging" style="text;html=1;strokeColor=none;fillColor=none;align=center;verticalAlign=middle;whiteSpace=wrap;rounded=0;" vertex="1" parent="1">
          <mxGeometry x="195" y="130" width="190" height="30" as="geometry" />
        </mxCell>
        <mxCell id="R05uWj6PvPZUDIditTrj-7" value="Simple Logging Facade For Java" style="text;html=1;strokeColor=none;fillColor=none;align=center;verticalAlign=middle;whiteSpace=wrap;rounded=0;" vertex="1" parent="1">
          <mxGeometry x="195" y="300" width="190" height="20" as="geometry" />
        </mxCell>
        <mxCell id="R05uWj6PvPZUDIditTrj-8" value="API" style="text;html=1;strokeColor=none;fillColor=none;align=center;verticalAlign=middle;whiteSpace=wrap;rounded=0;" vertex="1" parent="1">
          <mxGeometry x="250" y="90" width="80" height="20" as="geometry" />
        </mxCell>
        <mxCell id="R05uWj6PvPZUDIditTrj-9" value="Impl" style="text;html=1;strokeColor=none;fillColor=none;align=center;verticalAlign=middle;whiteSpace=wrap;rounded=0;" vertex="1" parent="1">
          <mxGeometry x="480" y="90" width="80" height="20" as="geometry" />
        </mxCell>
        <mxCell id="R05uWj6PvPZUDIditTrj-12" value="" style="rounded=0;whiteSpace=wrap;html=1;" vertex="1" parent="1">
          <mxGeometry x="450" y="140" width="140" height="180" as="geometry" />
        </mxCell>
        <mxCell id="R05uWj6PvPZUDIditTrj-13" value="log4j2" style="rounded=0;whiteSpace=wrap;html=1;" vertex="1" parent="1">
          <mxGeometry x="470" y="195" width="100" height="30" as="geometry" />
        </mxCell>
        <mxCell id="R05uWj6PvPZUDIditTrj-14" value="log4j" style="rounded=0;whiteSpace=wrap;html=1;" vertex="1" parent="1">
          <mxGeometry x="470" y="150" width="100" height="30" as="geometry" />
        </mxCell>
        <mxCell id="R05uWj6PvPZUDIditTrj-15" value="java.util.logging" style="rounded=0;whiteSpace=wrap;html=1;" vertex="1" parent="1">
          <mxGeometry x="470" y="237" width="100" height="30" as="geometry" />
        </mxCell>
        <mxCell id="R05uWj6PvPZUDIditTrj-16" value="logback" style="rounded=0;whiteSpace=wrap;html=1;" vertex="1" parent="1">
          <mxGeometry x="470" y="279" width="100" height="30" as="geometry" />
        </mxCell>
        <mxCell id="R05uWj6PvPZUDIditTrj-18" value="历史发展介绍:&amp;nbsp;https://blog.csdn.net/lixinkuan328/article/details/104113227" style="text;html=1;strokeColor=none;fillColor=none;align=center;verticalAlign=middle;whiteSpace=wrap;rounded=0;" vertex="1" parent="1">
          <mxGeometry x="220" y="30" width="340" height="30" as="geometry" />
        </mxCell>
      </root>
    </mxGraphModel>
  </diagram>
</mxfile>
